<svg fill-rule="evenodd" height="761" image-rendering="optimizeQuality" shape-rendering="geometricPrecision" text-rendering="geometricPrecision" viewBox="0 0 500.063 763.812" width="500" xml:space="preserve" xmlns="http://www.w3.org/2000/svg"><defs>
  
 </defs>
 
 
  
  
  <path d="m197.96,125.166c12.3252,16.4336 31.726,26.0199 52.0397,26.0199 20.542,0 39.7145-9.5863 52.0397-26.0199h-104.308 .2283zm-190.356-110.47c3.8801,0 7.0756-3.1955 7.0756-7.0756h-7.0756v7.0756zm477.716-7.0756c0,3.8801 3.1955,7.0756 7.0756,7.0756v-7.0756h-7.0756zm7.0756,741.795c-3.8801,0-7.0756,3.1955-7.0756,7.0756h7.0756v-7.0756zm-477.716,7.0755c0-3.8801-3.1955-7.0756-7.0756-7.0756v7.0756h7.0756zm183.28-117.774c12.3252-16.4336 31.726-26.0199 52.0397-26.0199 20.542,0 39.7145,9.5863 52.0397,26.0199h-104.308 .2283zm-90.8413-631.096v117.774h286.903v-117.774h-286.903zm0,748.87v-117.774h286.903v117.774h-286.903zm78.5161-748.87v39.258h129.871v-39.258h-129.871zm0,748.87v-39.258h129.871v39.258h-129.871zm64.5932-671.723c-.6848,0-1.3695.6848-1.3695,1.3695s.6848,1.3695 1.3695,1.3695 1.3695-.6848 1.3695-1.3695-.6848-1.3695-1.3695-1.3695zm0,591.838c-.6848,0-1.3695.6848-1.3695,1.3695s.6848,1.3695 1.3695,1.3695 1.3695-.6848 1.3695-1.3695-.6848-1.3695-1.3695-1.3695zm0-296.033c-.6848,0-1.3695.6848-1.3695,1.3695s.6848,1.3695 1.3695,1.3695 1.3695-.6848 1.3695-1.3695-.6848-1.3695-1.3695-1.3695zm0-63.9084c-36.0627,0-65.2779,29.2153-65.2779,65.2779s29.2153,65.2779 65.2779,65.2779 65.2779-29.2153 65.2779-65.2779-29.2153-65.2779-65.2779-65.2779zm-242.396,65.2779v374.321h485.019v-748.87h-485.019v374.321h485.019-485.019v.2282z" fill="none" stroke="#fff" stroke-opacity=".89" stroke-width="1.4264"></path>
 
</svg>
